<!--?xml version="1.0" encoding="utf-8"?-->
<!-- Generator: Adobe Illustrator 18.1.1, SVG Export Plug-In . SVG Version: 6.00 Build 0)  -->

<svg version="1.1" id="_x32_" xmlns="http://www.w3.org/2000/svg" xmlns:xlink="http://www.w3.org/1999/xlink" x="0px" y="0px" viewBox="0 0 512 512" style="width: 64px; height: 64px; opacity: 1;" xml:space="preserve">
<style type="text/css">
	.st0{fill:#4B4B4B;}
</style>
<g>
	<path class="st0" d="M33.969,344.6c-9.397-14.68-14.635-31.734-15.264-48.286c-0.104-2.694-0.148-5.305-0.148-7.851
		c0-13.377,1.376-24.853,3.744-35.012c4.158-17.765,11.306-31.624,20.066-44.712c6.57-9.797,14.08-19.112,21.783-29.027
		c11.52-14.857,23.484-31.128,32.46-52.334c4.492-10.595,8.22-22.397,10.803-35.782c2.59-13.392,4.047-28.36,4.047-45.326H92.902
		c0,16.167-1.406,30.107-3.818,42.382c-4.232,21.465-11.505,37.838-20.221,52.252c-6.548,10.802-13.947,20.495-21.539,30.217
		c-5.682,7.288-11.469,14.591-16.988,22.39c-8.272,11.691-15.937,24.543-21.457,39.97C3.337,248.908,0,266.829,0,288.463
		c0,2.79,0.059,5.646,0.17,8.561c0.511,13.288,3.448,26.659,8.656,39.289c7.814,18.926,20.77,36.255,38.52,48.893
		c17.721,12.638,40.258,20.451,66.421,20.436v-18.55c-15.005-0.008-28.212-2.937-39.703-7.961
		C56.84,371.592,43.373,359.287,33.969,344.6z" style="fill: rgb(21, 160, 52);"></path>
	<path class="st0" d="M216.97,227.377c17.373-5.031,35.042-10.75,51.912-18.586c12.638-5.875,24.831-12.955,36.019-21.842
		c16.781-13.318,31.238-30.81,41.257-53.843c10.041-23.034,15.701-51.46,15.701-86.836h-18.557c0,27.591-3.64,49.988-9.863,68.323
		c-5.453,16.049-12.867,29.02-21.746,39.852c-7.769,9.463-16.678,17.299-26.504,23.988c-17.166,11.698-37.165,19.814-58.023,26.474
		c-15.641,5.002-31.742,9.19-47.428,13.585c-11.765,3.3-23.3,6.718-34.258,10.744c-16.426,6.045-31.638,13.436-44.172,24.187
		c-6.252,5.372-11.809,11.594-16.337,18.801c-4.544,7.2-8.05,15.368-10.337,24.52c-1.65,6.57-2.405,12.771-2.405,18.542
		c0,7.636,1.332,14.539,3.655,20.547c3.478,9.027,9.101,15.982,15.39,20.688c3.152,2.36,6.467,4.172,9.856,5.424
		c3.382,1.25,6.829,1.953,10.322,1.961v-18.55c-1.192,0.015-3.271-0.392-5.542-1.517c-3.433-1.665-7.251-4.816-10.137-9.478
		c-2.9-4.67-4.987-10.848-5.001-19.075c0-4.144,0.547-8.82,1.857-14.044c1.628-6.511,3.944-12.156,6.859-17.196
		c5.467-9.419,13.074-16.826,22.737-23.151c8.442-5.52,18.432-10.129,29.516-14.206C171.14,239.541,193.811,234.059,216.97,227.377z
		" style="fill: rgb(21, 160, 52);"></path>
	<path class="st0" d="M509.181,368.751c-1.687-5.498-4.173-10.67-7.377-15.323c-2.812-4.077-6.134-7.762-9.937-11.077
		c-6.637-5.808-14.68-10.507-24.203-14.413c-14.287-5.86-31.957-9.974-53.717-12.719c-21.768-2.731-47.62-4.055-78.157-4.055
		c-56.44,0.008-99.783,4.232-130.319,9.686c-0.007,0-0.036-0.015-0.036-0.015l-0.015,0.03c-2.301,0.414-4.536,0.829-6.696,1.258
		c-7.702,1.509-14.465,3.108-20.347,4.721c-4.41,1.213-8.317,2.441-11.75,3.684c-2.574,0.932-4.883,1.865-6.963,2.826
		c-0.569,0.259-1.102,0.526-1.635,0.792v0.023c-10.743,2.13-19.201,25.608-19.201,54.279c0,28.672,8.458,52.148,19.201,54.28v0.014
		c2.405,1.214,5.128,2.361,8.28,3.507c6.541,2.383,14.85,4.75,25.09,7c15.338,3.374,34.99,6.488,59.037,8.768
		c24.047,2.272,52.49,3.714,85.355,3.714c30.388,0,56.129-1.309,77.831-4.017c16.278-2.027,30.269-4.839,42.271-8.554
		c9.005-2.789,16.9-6.082,23.773-10.018c5.164-2.945,9.774-6.268,13.807-10.041c6.045-5.638,10.817-12.386,13.955-20.044
		c3.144-7.651,4.587-16.056,4.572-24.61C512.008,381.685,511.12,375.025,509.181,368.751z M202.105,430.37
		c-7.318-1.435-13.688-2.938-19.06-4.417c-2.812-0.769-5.32-1.539-7.584-2.286c3.078-9.494,4.943-21.783,4.943-35.22
		c0-13.436-1.864-25.726-4.943-35.219c4.684-1.554,10.551-3.181,17.543-4.78c4.736-1.08,9.997-2.146,15.76-3.174
		c4.032,4.373,8.864,10.307,13.888,18.061c10.455,16.144,21.724,40.014,28.132,73.902
		C231.486,435.372,215.254,432.967,202.105,430.37z M265.611,438.509c-6.807-39.726-20.014-67.902-32.333-86.592
		c-2.294-3.477-4.536-6.592-6.726-9.434c7.325-1.014,15.234-1.953,23.758-2.782c6.001-0.584,12.298-1.109,18.89-1.583
		c4.313,3.758,12.475,11.801,21.176,25.216c10.81,16.714,22.515,41.716,28.79,77.535
		C299.499,440.565,281.645,439.722,265.611,438.509z M335.791,440.995c-0.688,0-1.36,0-2.056,0
		c-6.667-41.035-20.163-69.995-32.748-89.078c-3.892-5.926-7.695-10.876-11.18-14.998c13.792-0.636,28.672-0.998,44.646-1.02
		c2.7,2.079,12.741,10.432,23.632,27.251c10.699,16.522,22.256,41.131,28.59,76.306
		C371.544,440.485,354.622,441.003,335.791,440.995z M411.765,437.073c-3.448,0.436-7.029,0.829-10.728,1.199
		c-6.808-39.703-20.014-67.864-32.326-86.547c-4.099-6.215-8.08-11.365-11.698-15.59c19.867,0.459,37.27,1.599,52.4,3.404
		c4.04,3.788,10.211,10.403,16.752,20.495c9.581,14.813,19.955,37.01,25.504,68.871
		C440.895,432.323,427.636,435.091,411.765,437.073z M489.706,399.619c-0.888,2.886-2.153,5.542-3.959,8.176
		c-1.583,2.302-3.588,4.573-6.141,6.808c-3.611,3.16-8.354,6.223-14.302,9.019c-6.193-34.139-17.684-58.571-28.457-74.9
		c-1.272-1.946-2.545-3.752-3.795-5.476c6.467,1.31,12.342,2.79,17.624,4.432c7.999,2.471,14.658,5.305,20.022,8.375
		c4.026,2.294,7.318,4.721,9.966,7.2c3.974,3.729,6.474,7.474,8.117,11.454c1.628,3.988,2.456,8.353,2.472,13.739
		C491.253,392.694,490.712,396.327,489.706,399.619z" style="fill: rgb(21, 160, 52);"></path>
</g>
</svg>
