<!--?xml version="1.0" encoding="utf-8"?-->
<!-- Generator: Adobe Illustrator 18.1.1, SVG Export Plug-In . SVG Version: 6.00 Build 0)  -->

<svg version="1.1" id="_x32_" xmlns="http://www.w3.org/2000/svg" xmlns:xlink="http://www.w3.org/1999/xlink" x="0px" y="0px" viewBox="0 0 512 512" style="width: 64px; height: 64px; opacity: 1;" xml:space="preserve">
<style type="text/css">
	.st0{fill:#4B4B4B;}
</style>
<g>
	<path class="st0" d="M356.446,45.822c-0.043,0.137-0.052,0.318-0.107,0.447C357.003,45.848,356.858,45.772,356.446,45.822z" style="fill: rgb(228, 16, 223);"></path>
	<path class="st0" d="M287.828,140.894c12.007,61.02,81.342,50.408,81.342,50.408s9.574-11.995,0.67-29.45
		c15.261,5.074,50.656-15.755,66.991-29.964c-11.182-19.49-28.758-29.338-38.666-29.08c-0.64,1.391-4.641,6.353-0.472-0.018
		c15.956-24.384,19.575-58.212,19.575-58.212s-33.111-6.482-60.929,1.692c-7.255,2.155-1.374-0.241,0.107-0.447
		c3.193-9.478-0.971-29.294-16.151-45.822c-18.279,11.548-48.454,39.504-48.153,55.697c-13.918-13.721-28.106-8.037-28.106-8.037
		S233.526,111.333,287.828,140.894z" style="fill: rgb(228, 16, 223);"></path>
	<path class="st0" d="M397.692,102.79c0.142-0.009,0.326,0.034,0.472,0.018C398.336,102.438,398.302,102.292,397.692,102.79z" style="fill: rgb(228, 16, 223);"></path>
	<path class="st0" d="M149.217,135.365c0.091-0.018,0.198-0.061,0.288-0.069C149.071,135.038,149.071,135.15,149.217,135.365z" style="fill: rgb(228, 16, 223);"></path>
	<path class="st0" d="M127.925,157.86c11.866,7.014,36.511,15.995,45.608,11.118c-3.735,11.892,3.619,18.288,3.619,18.288
		s45.002-1.219,45.973-40.628c31.128-24.572,4.932-60.822,4.932-60.822s-9.586-1.948-16.905,8.192
		c-1.563-10.14-23.676-24.161-36.494-29.296c-7.804,12.02-8.272,24.856-5.246,30.403c0.975-0.043,4.954,0.79,0.129,0.274
		c-18.482-1.966-38.722,5.83-38.722,5.83s5.954,20.675,18.687,34.077c3.331,3.486,0.261,0.85-0.288,0.069
		C142.911,136.309,132.878,144.44,127.925,157.86z" style="fill: rgb(228, 16, 223);"></path>
	<path class="st0" d="M169.54,95.389c-0.048-0.077-0.073-0.198-0.129-0.274C169.154,95.122,169.076,95.191,169.54,95.389z" style="fill: rgb(228, 16, 223);"></path>
	<path class="st0" d="M173.592,243.1c0-28.745-23.302-52.056-52.043-52.056c-28.746,0-52.047,23.311-52.047,52.056
		s23.301,52.038,52.047,52.038C150.29,295.138,173.592,271.845,173.592,243.1z M104.674,246.036c-8.904,0-16.12-7.221-16.12-16.124
		c0-8.895,7.216-16.116,16.12-16.116s16.12,7.221,16.12,16.116C120.794,238.816,113.577,246.036,104.674,246.036z" style="fill: rgb(228, 16, 223);"></path>
	<path class="st0" d="M242.988,351.522c0-28.745-23.302-52.038-52.044-52.038c-28.745,0-52.048,23.293-52.048,52.038
		c0,28.746,23.302,52.056,52.048,52.056C219.686,403.578,242.988,380.268,242.988,351.522z M174.069,354.458
		c-8.904,0-16.12-7.221-16.12-16.124c0-8.895,7.216-16.116,16.12-16.116c8.904,0,16.12,7.221,16.12,16.116
		C190.189,347.238,182.973,354.458,174.069,354.458z" style="fill: rgb(228, 16, 223);"></path>
	<path class="st0" d="M260.34,407.906c-28.745,0-52.047,23.302-52.047,52.047c0,28.746,23.302,52.047,52.047,52.047
		c28.742,0,52.043-23.301,52.043-52.047C312.383,431.208,289.081,407.906,260.34,407.906z M243.464,462.889
		c-8.904,0-16.12-7.221-16.12-16.124c0-8.895,7.216-16.116,16.12-16.116s16.12,7.221,16.12,16.116
		C259.584,455.668,252.368,462.889,243.464,462.889z" style="fill: rgb(228, 16, 223);"></path>
	<path class="st0" d="M256,191.044c-28.746,0-52.048,23.311-52.048,52.056s23.302,52.038,52.048,52.038
		c28.745,0,52.043-23.293,52.043-52.038S284.745,191.044,256,191.044z M239.124,246.036c-8.904,0-16.12-7.221-16.12-16.124
		c0-8.895,7.216-16.116,16.12-16.116c8.904,0,16.12,7.221,16.12,16.116C255.244,238.816,248.028,246.036,239.124,246.036z" style="fill: rgb(228, 16, 223);"></path>
	<path class="st0" d="M390.45,191.044c-28.745,0-52.043,23.311-52.043,52.056s23.298,52.038,52.043,52.038
		c28.746,0,52.048-23.293,52.048-52.038S419.196,191.044,390.45,191.044z M373.579,246.036c-8.904,0-16.12-7.221-16.12-16.124
		c0-8.895,7.216-16.116,16.12-16.116c8.904,0,16.12,7.221,16.12,16.116C389.699,238.816,382.482,246.036,373.579,246.036z" style="fill: rgb(228, 16, 223);"></path>
	<path class="st0" d="M325.395,299.484c-28.745,0-52.048,23.293-52.048,52.038c0,28.746,23.302,52.056,52.048,52.056
		c28.746,0,52.047-23.31,52.047-52.056C377.442,322.777,354.141,299.484,325.395,299.484z M308.52,354.458
		c-8.904,0-16.12-7.221-16.12-16.124c0-8.895,7.216-16.116,16.12-16.116c8.904,0,16.12,7.221,16.12,16.116
		C324.64,347.238,317.423,354.458,308.52,354.458z" style="fill: rgb(228, 16, 223);"></path>
</g>
</svg>
