<!--?xml version="1.0" encoding="utf-8"?-->
<!-- Generator: Adobe Illustrator 18.1.1, SVG Export Plug-In . SVG Version: 6.00 Build 0)  -->

<svg version="1.1" id="_x32_" xmlns="http://www.w3.org/2000/svg" xmlns:xlink="http://www.w3.org/1999/xlink" x="0px" y="0px" viewBox="0 0 512 512" style="width: 64px; height: 64px; opacity: 1;" xml:space="preserve">
<style type="text/css">
	.st0{fill:#4B4B4B;}
</style>
<g>
	<path class="st0" d="M325.92,348.588l180.976-238.776H359.931l14.906-32.701c7.318-16.061,20.73-28.548,37.269-34.696
		l54.363-20.229L458.211,0l-54.355,20.229c-22.432,8.35-40.62,25.291-50.558,47.068l-19.382,42.515H96.389l180.969,238.776v109.534
		L201.965,512h199.356l-75.401-53.878V348.588z M206.617,189.265h190.044l-95.022,125.358L206.617,189.265z" style="fill: rgb(11, 208, 250);"></path>
	<path class="st0" d="M66.931,154.514c6.016,2.481,12.017,2.342,12.017,2.342c1.656,0,3.189-0.1,4.422-1.117
		c1.225-1.009,1.941-2.527,1.941-4.129v-38.263l-0.824-1.233l-1.456,0.294l-27.055,27.054c-1.132,1.133-1.702,2.704-1.548,4.284
		c0.162,1.595,1.056,2.704,2.342,3.921C56.77,147.667,60.915,152.004,66.931,154.514z" style="fill: rgb(11, 208, 250);"></path>
	<path class="st0" d="M128.104,53.824c-0.154-1.595-1.048-2.704-2.334-3.914c0,0-4.145-4.345-10.161-6.841
		c-6.016-2.496-12.017-2.349-12.017-2.349c-1.664,0-3.189,0.107-4.414,1.117c-1.233,1.017-1.949,2.527-1.949,4.129v38.263
		l0.824,1.225l1.448-0.286l27.062-27.062C127.689,56.982,128.25,55.403,128.104,53.824z" style="fill: rgb(11, 208, 250);"></path>
	<path class="st0" d="M35.547,121.938c2.496,6.016,6.841,10.16,6.841,10.16c1.171,1.171,2.326,2.172,3.914,2.334
		c1.586,0.155,3.166-0.416,4.29-1.54l27.062-27.062l0.285-1.456l-1.232-0.816H38.444c-1.602,0-3.113,0.708-4.122,1.942
		c-1.017,1.232-1.171,2.65-1.125,4.429C33.198,109.928,33.06,115.921,35.547,121.938z" style="fill: rgb(11, 208, 250);"></path>
	<path class="st0" d="M144.096,94.967c1.595,0,3.105-0.708,4.122-1.941c1.009-1.232,1.171-2.65,1.117-4.414c0,0,0.146-6-2.35-12.017
		c-2.488-6.024-6.833-10.161-6.833-10.161c-1.179-1.178-2.326-2.187-3.914-2.334c-1.586-0.154-3.166,0.409-4.29,1.534
		l-27.062,27.062l-0.285,1.448l1.232,0.824H144.096z" style="fill: rgb(11, 208, 250);"></path>
	<path class="st0" d="M34.323,93.026c1.009,1.233,2.52,1.941,4.122,1.941h38.263l1.232-0.824l-0.285-1.448L50.592,65.633
		c-1.125-1.133-2.704-1.688-4.29-1.534c-1.587,0.147-2.688,1.048-3.914,2.334c0,0-4.345,4.137-6.841,10.161
		c-2.488,6.016-2.35,12.01-2.35,12.01C33.198,90.276,33.306,91.794,34.323,93.026z" style="fill: rgb(11, 208, 250);"></path>
	<path class="st0" d="M85.312,45.966c0-1.602-0.716-3.112-1.941-4.129c-1.233-1.017-2.65-1.164-4.422-1.117
		c0,0-6-0.147-12.017,2.349c-6.017,2.496-10.161,6.833-10.161,6.833c-1.178,1.178-2.18,2.326-2.342,3.913
		c-0.154,1.587,0.416,3.166,1.548,4.291L83.031,85.16l1.456,0.294l0.824-1.233V45.966z" style="fill: rgb(11, 208, 250);"></path>
	<path class="st0" d="M162.307,98.788h15.13c0-19.905-6.772-38.255-18.164-52.853c-4.384-5.654-9.506-10.738-15.161-15.168
		c-14.59-11.362-32.948-18.126-52.861-18.126c-47.492,0-86.148,38.633-86.148,86.147c0,15.638,4.198,30.336,11.517,42.985
		c7.58,13.111,18.542,24.074,31.66,31.662c12.642,7.31,27.332,11.501,42.962,11.509v-15.122
		c-39.226-0.008-71.018-31.808-71.018-71.034c0-39.226,31.807-71.033,71.041-71.033C130.508,27.755,162.307,59.562,162.307,98.788z" style="fill: rgb(11, 208, 250);"></path>
</g>
</svg>
