<!--?xml version="1.0" encoding="utf-8"?-->
<!-- Generator: Adobe Illustrator 18.1.1, SVG Export Plug-In . SVG Version: 6.00 Build 0)  -->

<svg version="1.1" id="_x32_" xmlns="http://www.w3.org/2000/svg" xmlns:xlink="http://www.w3.org/1999/xlink" x="0px" y="0px" viewBox="0 0 512 512" style="width: 64px; height: 64px; opacity: 1;" xml:space="preserve">
<style type="text/css">
	.st0{fill:#4B4B4B;}
</style>
<g>
	<path class="st0" d="M458.268,136.914l-65.046-36.86V59.672c0-5.78-4.054-10.759-9.715-11.932L154.816,0.254
		c-3.586-0.745-7.334,0.169-10.175,2.476c-2.833,2.306-4.493,5.794-4.493,9.458V54.89l-89.337,96.208
		c-2.089,2.25-3.256,5.231-3.256,8.297v272.034c0,5.449,3.618,10.231,8.856,11.722l240.553,68.39c3.221,0.907,6.68,0.464,9.56-1.244
		l146.902-87.277c2.792-0.282,5.46-1.462,7.446-3.452c2.268-2.271,3.572-5.414,3.572-8.621V147.526
		C464.445,143.13,462.089,139.088,458.268,136.914z M431.952,150.028l-112.827,51.127l59.941-81.089L431.952,150.028z
		 M164.53,27.172l204.308,42.422v28.809L164.53,55.98V27.172z M294.205,485.41l-222.27-63.193v-85.048l222.27,52.653V485.41z
		 M129.654,288.96l-11.511,20.814c-1.691,3.023-3.298,3.684-5.762,3.171c-2.559-0.534-4.131-1.842-5.629-5.527l-10.453-25.349
		l-0.439-0.091l-0.777,30.517c-0.071,3.024-2.142,4.332-4.88,3.755c-2.82-0.584-4.81-2.722-4.736-5.745l1.164-45.896
		c0.084-3.6,2.443-5.337,5.966-4.605c3.083,0.632,4.476,2.489,6.058,6.258l14.05,33.914l0.344,0.077l15.262-27.859
		c1.667-3.108,3.119-4.367,6.202-3.727c3.533,0.731,5.678,3.389,5.593,6.99l-1.167,45.902c-0.07,3.024-2.14,4.325-4.866,3.762
		c-2.833-0.583-4.824-2.721-4.749-5.744l0.773-30.525L129.654,288.96z M152.215,323.964l1.167-46.304
		c0.08-3.108,2.331-4.612,5.33-3.994c3.002,0.619,5.158,3.038,5.074,6.146l-1.167,46.311c-0.084,3.108-2.334,4.62-5.334,3.994
		C154.286,329.497,152.13,327.079,152.215,323.964z M186.891,327.107l23.654,4.887c3.273,0.676,5.274,2.897,5.203,5.436
		c-0.06,2.538-2.144,3.91-5.418,3.242l-29.382-6.076c-3.178-0.654-5.154-2.953-5.08-5.906l1.167-46.142
		c0.081-3.101,2.332-4.613,5.33-3.994c3.002,0.619,5.158,3.038,5.074,6.146l-1.062,41.811
		C186.378,326.832,186.546,327.036,186.891,327.107z M258.329,296.301c1.181-1.069,2.693-1.505,4.275-1.167
		c2.57,0.527,4.63,2.686,4.57,5.133c-0.024,1.23-0.499,2.2-1.322,2.939l-14.404,12.319l16.095,29.723
		c0.594,1.111,0.918,2.328,0.893,3.228c-0.07,2.538-2.141,4.17-5.144,3.551c-2.117-0.443-3.773-1.849-4.87-3.888l-14.056-26.587
		l-9.704,8.762l-0.274,10.632c-0.084,3.115-2.335,4.62-5.344,4c-2.989-0.618-5.154-3.037-5.074-6.145l1.167-46.31
		c0.084-3.108,2.345-4.62,5.334-4.001c3.013,0.618,5.168,3.045,5.084,6.153l-0.573,22.578L258.329,296.301z M294.205,273.673
		L71.934,221.02v-52.478l222.27,52.653V273.673z M297.787,209.516L78.15,157.482l83.122-89.514c0.056-0.056,0.092-0.126,0.151-0.189
		l208.109,43.216c0.106,0.324,0.26,0.626,0.39,0.943L297.787,209.516z M440.066,402.592l-133.672,79.416v-93.078l133.672-60.556
		V402.592z M440.066,211.359l-133.672,60.57v-51.626l133.672-60.557V211.359z" style="fill: rgb(75, 75, 75);"></path>
</g>
</svg>
