<!--?xml version="1.0" encoding="utf-8"?-->
<!-- Generator: Adobe Illustrator 18.1.1, SVG Export Plug-In . SVG Version: 6.00 Build 0)  -->

<svg version="1.1" id="_x32_" xmlns="http://www.w3.org/2000/svg" xmlns:xlink="http://www.w3.org/1999/xlink" x="0px" y="0px" viewBox="0 0 512 512" style="width: 64px; height: 64px; opacity: 1;" xml:space="preserve">
<style type="text/css">
	.st0{fill:#4B4B4B;}
</style>
<g>
	<path class="st0" d="M287.88,104.895v-70.23h-63.768v70.23c0,23.803-74.99,48.802-74.99,114.274c0,20.24,0,269.525,0,269.525
		c0,12.871,10.434,23.306,23.306,23.306h167.145c12.87,0,23.305-10.435,23.305-23.306c0,0,0-249.285,0-269.525
		C362.878,153.697,287.88,128.698,287.88,104.895z M319.716,406.493H192.284V280.432h127.432V406.493z" style="fill: rgb(212, 5, 241);"></path>
	<path class="st0" d="M225.57,25.383h60.572c3.676,0,6.662-2.978,6.662-6.662V6.653c0-3.676-2.986-6.653-6.662-6.653H225.57
		c-3.677,0-6.654,2.978-6.654,6.653v12.068C218.916,22.405,221.893,25.383,225.57,25.383z" style="fill: rgb(212, 5, 241);"></path>
</g>
</svg>
